<svg width="374" height="482" viewBox="0 0 374 482" fill="none" xmlns="http://www.w3.org/2000/svg">
<g clip-path="url(#clip0_9_1544)">
<path d="M165.267 46.8225C72.1918 46.8225 0 98.6646 0 190.098C0 238.383 25.4726 276.045 61.3717 296.307L194.991 296.313C203.498 296.313 206.924 292.191 206.924 286.735C206.924 278.994 199.949 275.903 179.139 265.889C133.342 243.838 110.822 231.373 110.822 194.368C110.822 166.708 129.94 145.352 160.998 140.363C166.436 139.497 173.818 138.999 182.589 138.999H254.818V185.822L367.203 92.914L254.812 0V46.8225H165.267Z" fill="white"/>
<path d="M114.717 435.177V482L2.33203 389.092L114.717 296.307V343.001H188.969C194.401 343.001 201.475 342.718 206.439 342.165C239.096 338.522 262.656 322.861 262.656 286.317C262.656 248.065 236.353 235.71 193.201 215.073C171.647 204.763 166.412 201.096 166.412 194.601C166.412 189.133 170.201 185.816 176.826 185.816H308.76C400.808 241.983 380.589 339.278 338.557 386.076C309.264 418.687 261.77 435.177 205.541 435.177H114.717Z" fill="#FFC113"/>
<path d="M348.06 424.678C348.06 430.367 343.588 434.833 337.769 434.833C332.011 434.833 327.416 430.367 327.416 424.678C327.416 419.111 332.011 414.638 337.769 414.638C343.588 414.638 348.06 419.105 348.06 424.678ZM329.987 424.678C329.987 429.144 333.297 432.695 337.83 432.695C342.241 432.695 345.489 429.144 345.489 424.739C345.489 420.272 342.241 416.66 337.769 416.66C333.297 416.66 329.987 420.266 329.987 424.678ZM336.176 429.937H333.844V419.898C334.761 419.713 336.052 419.59 337.701 419.59C339.602 419.59 340.457 419.898 341.195 420.328C341.749 420.758 342.173 421.55 342.173 422.533C342.173 423.633 341.318 424.493 340.088 424.862V424.985C341.066 425.353 341.619 426.085 341.927 427.43C342.235 428.96 342.419 429.574 342.665 429.937H340.155C339.848 429.568 339.663 428.653 339.362 427.491C339.177 426.392 338.562 425.9 337.277 425.9H336.176V429.937ZM336.237 424.247H337.338C338.624 424.247 339.663 423.817 339.663 422.779C339.663 421.864 338.987 421.249 337.516 421.249C336.901 421.249 336.477 421.311 336.231 421.372V424.247H336.237Z" fill="#FFC113"/>
</g>
<defs>
<clipPath id="clip0_9_1544">
<rect width="374" height="482" fill="white"/>
</clipPath>
</defs>
</svg>
