<svg width="443" height="89" viewBox="0 0 443 89" fill="none" xmlns="http://www.w3.org/2000/svg">
<path fill-rule="evenodd" clip-rule="evenodd" d="M177.059 56.8381C177.059 52.5653 175.107 50.0666 171.233 50.0666H160.649V63.6439H171.233C175.193 63.6401 177.059 60.9442 177.059 56.8381ZM160.649 36.4446L170.227 36.4472C173.852 36.4472 175.517 33.7767 175.517 30.0406C175.517 26.157 173.808 23.6366 170.227 23.6366H160.649V36.4446ZM198.047 57.788C198.047 71.9541 188.673 79.5522 174.784 79.5522H140.141V8.04243H173.612C188.553 8.04752 196.185 16.5218 196.185 27.6169C196.185 33.3317 193.546 38.1487 188.327 41.7105C194.382 45.1376 198.047 50.2827 198.047 57.788ZM112.919 57.4447C112.919 60.6365 110.224 63.2396 105.052 63.2396C99.7296 63.2396 97.1851 60.62 97.1851 57.4447V8.03995H76.5142V59.1182C76.5142 70.4435 85.7211 81.0859 105.051 81.0859C123.367 81.0859 133.587 70.5299 133.587 59.1182V8.03995H112.919V57.4447ZM72.7655 58.846C72.7642 69.9958 66.5159 76.663 56.3605 78.7917C53.6692 79.3538 48.9792 79.4047 45.7872 79.4072L21.4288 79.2343V88.6L0 70.6545L21.4288 52.7026V62.1205L48.7872 62.329C51.3743 62.3748 52.4659 60.8692 52.4659 59.2974C52.4659 56.4565 49.7922 55.4926 42.0796 51.7883C29.6733 45.8319 19.9482 41.5274 19.9482 27.7568C19.9482 17.0915 27.5567 9.65741 38.7234 8.17848C40.9968 7.87965 45.1511 7.78427 47.8851 7.82751C53.4872 7.92034 69.1156 8.17594 69.1156 8.17594V25.38L43.4234 24.954C41.1926 24.9172 40.0997 26.3732 40.0997 27.8801C40.0997 30.0801 41.8776 30.9931 49.1385 34.4621C64.3892 41.7487 72.7655 45.57 72.7655 58.846Z" fill="#FDB400"/>
<path fill-rule="evenodd" clip-rule="evenodd" d="M328.355 43.0915L328.351 30.5371C328.351 27.1934 326.021 24.7838 320.555 24.7838C315.057 24.7838 312.754 27.2247 312.754 30.5371V43.0915H328.355ZM348.894 29.3328V79.6031H328.35V59.2297H312.751L312.752 79.6031H292.211V29.3328C292.211 16.7084 302.582 7.22252 320.55 7.22252C338.331 7.22252 348.894 16.6321 348.894 29.3328ZM374.419 36.9168L374.418 9.27703H353.983V38.9388C353.983 48.7523 360.711 56.2111 372.009 59.261L372.01 79.6007H392.887V59.261C404.363 56.1436 410.714 48.716 410.714 38.9388V28.0612C410.714 27.0246 411.232 26.4056 412.427 26.4056L421.592 26.4031V35.305L443.002 17.6525L421.592 0V8.84938H407.391C395.357 8.84938 390.287 15.7943 390.287 25.8316V36.9168C390.287 39.5653 388.482 42.6638 382.354 42.6638C376.226 42.6638 374.419 39.5653 374.419 36.9168ZM265.188 9.27455H285.799V58.8734C285.799 70.3337 277.636 80.7824 260.412 80.7824C253.056 80.7824 247.341 78.5828 243.155 75.2929C239.04 78.5716 233.521 80.7824 226.604 80.7824C208.184 80.7824 200.654 70.3487 200.654 58.8734V9.27455H221.265V58.4219C221.265 60.4239 222.407 62.9523 227.044 62.9523C231.739 62.9523 232.929 60.5489 232.929 58.4219V9.27455H253.527V58.4219C253.527 60.4927 254.625 62.9523 259.341 62.9523C264.051 62.9523 265.188 60.5965 265.188 58.4219V9.27455Z" fill="white"/>
<path fill-rule="evenodd" clip-rule="evenodd" d="M402.609 77.4953C400.838 77.4953 399.38 76.0383 399.38 74.2675C399.38 72.498 400.838 71.0397 402.609 71.0397C404.379 71.0397 405.836 72.498 405.836 74.2675C405.836 76.0383 404.379 77.4953 402.609 77.4953ZM402.609 70.3586C400.457 70.3586 398.699 72.1164 398.699 74.2675C398.699 76.4198 400.457 78.1763 402.609 78.1763C404.76 78.1763 406.517 76.4198 406.517 74.2675C406.517 72.1164 404.76 70.3586 402.609 70.3586ZM402.88 74.063H401.888V72.9198H402.88C403.235 72.9198 403.52 73.0969 403.52 73.4901C403.52 73.8729 403.235 74.063 402.88 74.063ZM404.311 73.3417C404.311 72.6737 403.78 72.3065 403.084 72.2922H401.151V76.0929H401.888V74.6763H402.772C403.248 74.6763 403.535 74.9068 403.535 75.3573V76.0929H404.271V75.0982C404.258 74.6893 404.024 74.4445 403.685 74.3495V74.3221C404.147 74.0904 404.311 73.8052 404.311 73.3417Z" fill="#008C2B"/>
</svg>
